<svg version="1.2" xmlns="http://www.w3.org/2000/svg" viewBox="0 0 198 44" width="198" height="44">
	<style>
		.s0 { fill: #1a1a1c } 
		.s1 { fill: #f5f5f7 } 
		.s2 { fill: #b3b2b3 } 
		.s3 { fill: #333233 } 
	</style>
	<path fill-rule="evenodd" class="s0" d="m22 0c12.15 0 22 9.85 22 22 0 12.15-9.85 22-22 22-12.15 0-22-9.85-22-22 0-12.15 9.85-22 22-22z"/>
	<path class="s1" d="m27.5 20l2.12 2.12-2.12 2.12-2.12-2.12z"/>
	<path class="s1" d="m20.62 31.12l-2.12 2.12-2.12-2.12 2.12-2.12z"/>
	<path class="s1" d="m24.5 17l2.12 2.12-2.12 2.12-2.12-2.12z"/>
	<path class="s1" d="m23.62 28.12l-2.12 2.12-2.12-2.12 2.12-2.12z"/>
	<path class="s1" d="m21.5 14l2.12 2.12-2.12 2.12-2.12-2.12z"/>
	<path class="s1" d="m26.62 25.12l-2.12 2.12-2.12-2.12 2.12-2.12z"/>
	<path class="s1" d="m18.5 11l2.12 2.12-2.12 2.12-2.12-2.12z"/>
	<path class="s1" d="m23.62 22.12l-2.12 2.12-2.12-2.12 2.12-2.12z"/>
	<path class="s1" d="m18.24 22.12l-2.12 2.12-2.12-2.12 2.12-2.12z"/>
	<path id="Labs. copy 2" class="s2" aria-label="Labs."  d="m132.1 31v-2.9h-10.4v-17.5h-2.6v20.4zm7.6-16.6c-4.9 0-6.1 3-6.4 5.6h2.2c0.3-1.8 1.3-3.4 4.1-3.4 3.1 0 4.6 1.5 4.6 5v0.2c-0.9-0.5-3.2-1.3-5.6-1.3-4.8 0-5.8 3-5.8 5.4 0 2 0.7 5.5 5.3 5.5 2.7 0 5.2-2 6.2-5.3l-0.1 1.9v3h2.3v-8.3c0-4.5-0.9-8.3-6.8-8.3zm-1 14.6c-2.9 0-3.6-1.8-3.6-3.2 0-1.5 0.7-3.2 4.1-3.2 1.5 0 3.6 0.4 4.9 1.2-0.4 2.1-2 5.2-5.4 5.2zm18.9-14.6c-2.6 0-4.6 1.6-5.5 4.4h-0.1l0.1-1.9v-6.9h-2.4v21h2.4v-2l-0.1-1.9h0.1c0.9 2.8 2.9 4.4 5.5 4.4 4.1 0 6.6-3.6 6.6-8.4v-0.3c0-4.8-2.5-8.4-6.6-8.4zm4.3 8.7c0 2.9-1.5 5.9-4.8 5.9-3.4 0-5.1-3.3-5.1-5.9v-0.4c0-2.6 1.7-5.8 5.1-5.8 3.2 0 4.8 3.1 4.8 5.9zm10.8 8.4c4.2 0 6.1-1.9 6.1-5 0-3.1-1.8-4.4-6-4.8-2.5-0.3-3.9-0.7-3.9-2.6 0-1.4 0.9-2.3 3.1-2.3 2.9 0 4.2 1.4 4.3 3h2.3c0-2.5-1.8-5.4-6.4-5.4-4.4 0-5.7 2.4-5.7 4.8 0 3.2 2.1 4.2 5.8 4.8 2.7 0.4 4.2 0.8 4.2 2.6 0 1.4-0.9 2.5-3.8 2.5-2.6 0-4.3-1.3-4.4-3.3h-2.2c0 3 2 5.7 6.6 5.7zm9.5 0c1 0 1.6-0.6 1.6-1.8 0-1.1-0.6-1.7-1.6-1.7-1 0-1.6 0.6-1.6 1.7 0 1.2 0.6 1.8 1.6 1.8z"/>
	<path id="Cybr copy 3" class="s3" aria-label="Cybr"  d="m61.2 31.5c5 0 8.9-3.5 9.2-8.8h-2.5c-0.3 3.7-3.2 6-6.7 6-3.9 0-6.8-2.8-6.8-7.9 0-5 2.9-7.8 6.8-7.8 3.3 0 6.2 2.3 6.6 5.9h2.6c-0.4-5.2-4.2-8.7-9.2-8.7-5.6 0-9.4 3.9-9.4 10.6 0 6.8 3.8 10.7 9.4 10.7zm13.4 4.8c2.1-0.2 3.8-1.5 4.9-4.5l6.3-17-2.6 0.1-4.5 12.8-0.2 0.7-0.2-0.7-4.5-12.8h-2.6l5.8 15.6h0.9l-0.4 0.8c-0.6 1.7-1.8 2.5-3.3 2.9zm21.1-22c-2.6 0-4.6 1.7-5.6 4.4v-1.9-6.8h-2.3v20.9h2.3v-2-1.9c1 2.8 3 4.4 5.6 4.4 4.1 0 6.6-3.6 6.6-8.4v-0.3c0-4.8-2.5-8.4-6.6-8.4zm4.3 8.7c0 2.9-1.5 5.9-4.8 5.9-3.4 0-5.1-3.3-5.1-5.9v-0.3c0-2.6 1.7-5.9 5.1-5.9 3.2 0 4.8 3.1 4.8 5.9zm12.8-8.6c-2.7 0-4.8 2.1-5.7 5.3v-1.8-3.1h-2.3v16.2h2.3v-6.5c0-4 2.2-7.4 5.5-7.4 0.5 0 1 0.1 1.4 0.2v-2.8c-0.4-0.1-0.8-0.1-1.2-0.1z"/>
</svg>